G04 EAGLE Gerber RS-274X export*
G75*
%MOMM*%
%FSLAX34Y34*%
%LPD*%
%INSolderpaste Bottom*%
%IPPOS*%
%AMOC8*
5,1,8,0,0,1.08239X$1,22.5*%
G01*
%ADD10R,2.400000X1.800000*%
%ADD11R,1.050000X1.080000*%
%ADD12R,1.300000X1.500000*%
%ADD13R,1.100000X1.000000*%
%ADD14R,1.400000X1.000000*%
%ADD15R,1.000000X1.100000*%
%ADD16R,1.150000X1.400000*%


D10*
X228600Y318700D03*
X228600Y278200D03*
D11*
X600850Y317500D03*
X618350Y317500D03*
D12*
X295300Y158750D03*
X314300Y158750D03*
D13*
X1130300Y150250D03*
X1130300Y167250D03*
D14*
X535100Y345440D03*
X557100Y335940D03*
X557100Y354940D03*
D15*
X592700Y349250D03*
X575700Y349250D03*
D14*
X535100Y304800D03*
X557100Y295300D03*
X557100Y314300D03*
D15*
X592700Y369570D03*
X575700Y369570D03*
D14*
X696800Y289560D03*
X674800Y299060D03*
X674800Y280060D03*
D15*
X669680Y320040D03*
X686680Y320040D03*
D14*
X689180Y370840D03*
X667180Y380340D03*
X667180Y361340D03*
D15*
X669680Y340360D03*
X686680Y340360D03*
D13*
X1032120Y134620D03*
X1015120Y134620D03*
X1015120Y72390D03*
X1032120Y72390D03*
D15*
X1104510Y158750D03*
X1087510Y158750D03*
D16*
X1016000Y114300D03*
X1016000Y92300D03*
X1032000Y114300D03*
X1032000Y92300D03*
D15*
X323850Y194700D03*
X323850Y211700D03*
M02*
