G04 EAGLE Gerber RS-274X export*
G75*
%MOMM*%
%FSLAX34Y34*%
%LPD*%
%INSoldermask Bottom*%
%IPPOS*%
%AMOC8*
5,1,8,0,0,1.08239X$1,22.5*%
G01*
%ADD10C,2.603200*%
%ADD11R,5.719200X5.719200*%
%ADD12C,5.719200*%
%ADD13P,3.629037X8X202.500000*%
%ADD14C,3.352800*%
%ADD15C,1.524000*%
%ADD16C,1.727200*%
%ADD17P,1.869504X8X292.500000*%
%ADD18C,1.711200*%
%ADD19R,1.711200X1.711200*%
%ADD20R,2.603200X2.003200*%
%ADD21R,1.253200X1.283200*%
%ADD22C,1.903200*%
%ADD23C,1.727200*%
%ADD24P,1.649562X8X22.500000*%
%ADD25R,1.503200X1.703200*%
%ADD26C,2.489200*%
%ADD27R,1.303200X1.203200*%
%ADD28R,1.603200X1.203200*%
%ADD29R,1.203200X1.303200*%
%ADD30R,1.353200X1.603200*%


D10*
X97400Y838900D02*
X97400Y862900D01*
X152400Y862900D02*
X152400Y838900D01*
X207400Y838900D02*
X207400Y862900D01*
D11*
X50800Y649800D03*
D12*
X50800Y721800D03*
D10*
X402200Y838900D02*
X402200Y862900D01*
X457200Y862900D02*
X457200Y838900D01*
X512200Y838900D02*
X512200Y862900D01*
X707000Y862900D02*
X707000Y838900D01*
X762000Y838900D02*
X762000Y862900D01*
X817000Y862900D02*
X817000Y838900D01*
X1011800Y838900D02*
X1011800Y862900D01*
X1066800Y862900D02*
X1066800Y838900D01*
X1121800Y838900D02*
X1121800Y862900D01*
D13*
X63500Y133350D03*
D14*
X139700Y133350D03*
D13*
X63500Y298450D03*
D14*
X139700Y298450D03*
D15*
X1060450Y416560D03*
X1085850Y416560D03*
D16*
X1129030Y118110D03*
D17*
X1129030Y92710D03*
X1129030Y67310D03*
X1154430Y118110D03*
X1154430Y92710D03*
X1154430Y67310D03*
D18*
X679450Y131010D03*
D19*
X679450Y156010D03*
D18*
X266700Y285950D03*
D19*
X266700Y310950D03*
D20*
X228600Y318700D03*
X228600Y278200D03*
D19*
X1003900Y236050D03*
D18*
X1028900Y236050D03*
X1053900Y236050D03*
X1078900Y236050D03*
D21*
X600850Y317500D03*
X618350Y317500D03*
D22*
X139700Y393700D03*
X139700Y469900D03*
X101600Y393700D03*
X101600Y469900D03*
X63500Y469900D03*
X63500Y393700D03*
X25400Y469900D03*
X25400Y393700D03*
D23*
X317500Y134620D02*
X317500Y119380D01*
X292100Y119380D02*
X292100Y134620D01*
X266700Y134620D02*
X266700Y119380D01*
D24*
X279400Y190500D03*
X292100Y209550D03*
X304800Y190500D03*
D25*
X295300Y158750D03*
X314300Y158750D03*
D18*
X69850Y520900D03*
D19*
X69850Y545900D03*
D26*
X292100Y71120D03*
D27*
X1130300Y150250D03*
X1130300Y167250D03*
D18*
X1154430Y171650D03*
D19*
X1154430Y196650D03*
D18*
X679450Y51000D03*
D19*
X679450Y76000D03*
D28*
X535100Y345440D03*
X557100Y335940D03*
X557100Y354940D03*
D29*
X592700Y349250D03*
X575700Y349250D03*
D28*
X535100Y304800D03*
X557100Y295300D03*
X557100Y314300D03*
D29*
X592700Y369570D03*
X575700Y369570D03*
D28*
X696800Y289560D03*
X674800Y299060D03*
X674800Y280060D03*
D29*
X669680Y320040D03*
X686680Y320040D03*
D28*
X689180Y370840D03*
X667180Y380340D03*
X667180Y361340D03*
D29*
X669680Y340360D03*
X686680Y340360D03*
D27*
X1032120Y134620D03*
X1015120Y134620D03*
X1015120Y72390D03*
X1032120Y72390D03*
D19*
X1154600Y413350D03*
D18*
X1154600Y438350D03*
X1154600Y463350D03*
X1154600Y488350D03*
D19*
X1154600Y254800D03*
D18*
X1154600Y279800D03*
X1154600Y304800D03*
X1154600Y329800D03*
X1154600Y354800D03*
D29*
X1104510Y158750D03*
X1087510Y158750D03*
D23*
X934720Y35560D02*
X934720Y20320D01*
X960120Y20320D02*
X960120Y35560D01*
X985520Y35560D02*
X985520Y20320D01*
X1010920Y20320D02*
X1010920Y35560D01*
X1036320Y35560D02*
X1036320Y20320D01*
X1061720Y20320D02*
X1061720Y35560D01*
X1087120Y35560D02*
X1087120Y20320D01*
X1112520Y20320D02*
X1112520Y35560D01*
X1137920Y35560D02*
X1137920Y20320D01*
D30*
X1016000Y114300D03*
X1016000Y92300D03*
X1032000Y114300D03*
X1032000Y92300D03*
D29*
X323850Y194700D03*
X323850Y211700D03*
M02*
