G04 EAGLE Gerber RS-274X export*
G75*
%MOMM*%
%FSLAX34Y34*%
%LPD*%
%INSolderpaste Top*%
%IPPOS*%
%AMOC8*
5,1,8,0,0,1.08239X$1,22.5*%
G01*
%ADD10C,0.600000*%
%ADD11R,1.500000X1.300000*%
%ADD12R,1.000000X1.100000*%
%ADD13R,1.100000X1.000000*%
%ADD14C,0.147500*%
%ADD15R,0.878650X0.251641*%
%ADD16R,0.876600X0.250400*%
%ADD17R,0.875319X0.250016*%
%ADD18R,0.878750X0.249438*%
%ADD19R,0.875531X0.249816*%
%ADD20R,0.874459X0.249709*%
%ADD21R,0.872750X0.249481*%
%ADD22R,0.873809X0.250091*%
%ADD23R,0.874550X0.250172*%
%ADD24R,0.874419X0.250400*%
%ADD25R,1.500000X0.550000*%
%ADD26R,0.550000X1.500000*%
%ADD27R,5.840000X3.940000*%
%ADD28R,0.500000X1.400000*%
%ADD29C,0.150000*%
%ADD30R,0.600000X1.500000*%
%ADD31R,2.000000X2.200000*%
%ADD32R,2.200000X2.000000*%
%ADD33R,1.000000X1.400000*%
%ADD34R,1.219000X2.235000*%
%ADD35R,3.600000X2.200000*%
%ADD36R,2.150000X1.800000*%
%ADD37C,1.600000*%
%ADD38R,1.730000X1.110000*%
%ADD39R,1.200000X2.000000*%


D10*
X592600Y355600D02*
X579600Y355600D01*
X579600Y342900D02*
X592600Y342900D01*
X592600Y330200D02*
X579600Y330200D01*
X579600Y317500D02*
X592600Y317500D01*
X592600Y304800D02*
X579600Y304800D01*
X579600Y292100D02*
X592600Y292100D01*
X592600Y279400D02*
X579600Y279400D01*
X626600Y355600D02*
X639600Y355600D01*
X639600Y342900D02*
X626600Y342900D01*
X626600Y330200D02*
X639600Y330200D01*
X639600Y317500D02*
X626600Y317500D01*
X626600Y304800D02*
X639600Y304800D01*
X639600Y292100D02*
X626600Y292100D01*
X626600Y279400D02*
X639600Y279400D01*
D11*
X113030Y776630D03*
X113030Y795630D03*
D12*
X554600Y342900D03*
X537600Y342900D03*
D13*
X554600Y363220D03*
X537600Y363220D03*
D14*
X797847Y355267D02*
X812473Y355267D01*
X797847Y355267D02*
X797847Y359693D01*
X812473Y359693D01*
X812473Y355267D01*
X812473Y356668D02*
X797847Y356668D01*
X797847Y358069D02*
X812473Y358069D01*
X812473Y359470D02*
X797847Y359470D01*
X797847Y345767D02*
X812473Y345767D01*
X797847Y345767D02*
X797847Y350193D01*
X812473Y350193D01*
X812473Y345767D01*
X812473Y347168D02*
X797847Y347168D01*
X797847Y348569D02*
X812473Y348569D01*
X812473Y349970D02*
X797847Y349970D01*
X797847Y336267D02*
X812473Y336267D01*
X797847Y336267D02*
X797847Y340693D01*
X812473Y340693D01*
X812473Y336267D01*
X812473Y337668D02*
X797847Y337668D01*
X797847Y339069D02*
X812473Y339069D01*
X812473Y340470D02*
X797847Y340470D01*
X820747Y340693D02*
X835373Y340693D01*
X835373Y336267D01*
X820747Y336267D01*
X820747Y340693D01*
X820747Y337668D02*
X835373Y337668D01*
X835373Y339069D02*
X820747Y339069D01*
X820747Y340470D02*
X835373Y340470D01*
X835373Y350193D02*
X820747Y350193D01*
X835373Y350193D02*
X835373Y345767D01*
X820747Y345767D01*
X820747Y350193D01*
X820747Y347168D02*
X835373Y347168D01*
X835373Y348569D02*
X820747Y348569D01*
X820747Y349970D02*
X835373Y349970D01*
X835373Y359693D02*
X820747Y359693D01*
X835373Y359693D02*
X835373Y355267D01*
X820747Y355267D01*
X820747Y359693D01*
X820747Y356668D02*
X835373Y356668D01*
X835373Y358069D02*
X820747Y358069D01*
X820747Y359470D02*
X835373Y359470D01*
D12*
X770010Y358140D03*
X787010Y358140D03*
D13*
X753110Y334400D03*
X753110Y351400D03*
D12*
X732790Y334400D03*
X732790Y351400D03*
D15*
X647377Y214478D03*
D16*
X647387Y209472D03*
D17*
X647393Y204470D03*
D18*
X647376Y199467D03*
D19*
X647392Y194469D03*
D20*
X688648Y194469D03*
D21*
X688656Y199467D03*
D22*
X688651Y204470D03*
D23*
X688647Y209471D03*
D24*
X688648Y214472D03*
D25*
X985700Y148650D03*
X985700Y140650D03*
X985700Y132650D03*
X985700Y124650D03*
X985700Y116650D03*
X985700Y108650D03*
X985700Y100650D03*
X985700Y92650D03*
D26*
X1000700Y77650D03*
X1008700Y77650D03*
X1016700Y77650D03*
X1024700Y77650D03*
X1032700Y77650D03*
X1040700Y77650D03*
X1048700Y77650D03*
X1056700Y77650D03*
D25*
X1071700Y92650D03*
X1071700Y100650D03*
X1071700Y108650D03*
X1071700Y116650D03*
X1071700Y124650D03*
X1071700Y132650D03*
X1071700Y140650D03*
X1071700Y148650D03*
D26*
X1056700Y163650D03*
X1048700Y163650D03*
X1040700Y163650D03*
X1032700Y163650D03*
X1024700Y163650D03*
X1016700Y163650D03*
X1008700Y163650D03*
X1000700Y163650D03*
D12*
X1094740Y112150D03*
X1094740Y129150D03*
X507120Y342900D03*
X524120Y342900D03*
D11*
X402590Y775360D03*
X402590Y794360D03*
D12*
X554600Y292100D03*
X537600Y292100D03*
D13*
X554600Y271780D03*
X537600Y271780D03*
D12*
X507120Y292100D03*
X524120Y292100D03*
D11*
X707390Y775360D03*
X707390Y794360D03*
D12*
X664600Y292100D03*
X681600Y292100D03*
D13*
X664600Y271780D03*
X681600Y271780D03*
D12*
X712080Y292100D03*
X695080Y292100D03*
D11*
X1012190Y775360D03*
X1012190Y794360D03*
D12*
X664600Y342900D03*
X681600Y342900D03*
D13*
X664600Y363220D03*
X681600Y363220D03*
D12*
X712080Y342900D03*
X695080Y342900D03*
D27*
X254000Y576550D03*
X254000Y668050D03*
X355600Y576550D03*
X355600Y668050D03*
X457200Y576550D03*
X457200Y668050D03*
X558800Y576550D03*
X558800Y668050D03*
X660400Y576550D03*
X660400Y668050D03*
X762000Y576550D03*
X762000Y668050D03*
X863600Y576550D03*
X863600Y668050D03*
X965200Y576550D03*
X965200Y668050D03*
D13*
X745490Y147710D03*
X745490Y164710D03*
X720090Y175650D03*
X720090Y192650D03*
X765810Y147710D03*
X765810Y164710D03*
D12*
X806060Y175260D03*
X789060Y175260D03*
D13*
X676520Y229870D03*
X659520Y229870D03*
D12*
X777240Y324240D03*
X777240Y341240D03*
X863210Y307340D03*
X846210Y307340D03*
X863210Y287020D03*
X846210Y287020D03*
D28*
X736600Y186900D03*
X749300Y186900D03*
X762000Y186900D03*
X774700Y186900D03*
X774700Y244900D03*
X762000Y244900D03*
X749300Y244900D03*
X736600Y244900D03*
D29*
X1077250Y377750D02*
X1077250Y395250D01*
X1081750Y395250D01*
X1081750Y377750D01*
X1077250Y377750D01*
X1077250Y379175D02*
X1081750Y379175D01*
X1081750Y380600D02*
X1077250Y380600D01*
X1077250Y382025D02*
X1081750Y382025D01*
X1081750Y383450D02*
X1077250Y383450D01*
X1077250Y384875D02*
X1081750Y384875D01*
X1081750Y386300D02*
X1077250Y386300D01*
X1077250Y387725D02*
X1081750Y387725D01*
X1081750Y389150D02*
X1077250Y389150D01*
X1077250Y390575D02*
X1081750Y390575D01*
X1081750Y392000D02*
X1077250Y392000D01*
X1077250Y393425D02*
X1081750Y393425D01*
X1081750Y394850D02*
X1077250Y394850D01*
X1064550Y395250D02*
X1064550Y377750D01*
X1064550Y395250D02*
X1069050Y395250D01*
X1069050Y377750D01*
X1064550Y377750D01*
X1064550Y379175D02*
X1069050Y379175D01*
X1069050Y380600D02*
X1064550Y380600D01*
X1064550Y382025D02*
X1069050Y382025D01*
X1069050Y383450D02*
X1064550Y383450D01*
X1064550Y384875D02*
X1069050Y384875D01*
X1069050Y386300D02*
X1064550Y386300D01*
X1064550Y387725D02*
X1069050Y387725D01*
X1069050Y389150D02*
X1064550Y389150D01*
X1064550Y390575D02*
X1069050Y390575D01*
X1069050Y392000D02*
X1064550Y392000D01*
X1064550Y393425D02*
X1069050Y393425D01*
X1069050Y394850D02*
X1064550Y394850D01*
X1051850Y395250D02*
X1051850Y377750D01*
X1051850Y395250D02*
X1056350Y395250D01*
X1056350Y377750D01*
X1051850Y377750D01*
X1051850Y379175D02*
X1056350Y379175D01*
X1056350Y380600D02*
X1051850Y380600D01*
X1051850Y382025D02*
X1056350Y382025D01*
X1056350Y383450D02*
X1051850Y383450D01*
X1051850Y384875D02*
X1056350Y384875D01*
X1056350Y386300D02*
X1051850Y386300D01*
X1051850Y387725D02*
X1056350Y387725D01*
X1056350Y389150D02*
X1051850Y389150D01*
X1051850Y390575D02*
X1056350Y390575D01*
X1056350Y392000D02*
X1051850Y392000D01*
X1051850Y393425D02*
X1056350Y393425D01*
X1056350Y394850D02*
X1051850Y394850D01*
X1039150Y395250D02*
X1039150Y377750D01*
X1039150Y395250D02*
X1043650Y395250D01*
X1043650Y377750D01*
X1039150Y377750D01*
X1039150Y379175D02*
X1043650Y379175D01*
X1043650Y380600D02*
X1039150Y380600D01*
X1039150Y382025D02*
X1043650Y382025D01*
X1043650Y383450D02*
X1039150Y383450D01*
X1039150Y384875D02*
X1043650Y384875D01*
X1043650Y386300D02*
X1039150Y386300D01*
X1039150Y387725D02*
X1043650Y387725D01*
X1043650Y389150D02*
X1039150Y389150D01*
X1039150Y390575D02*
X1043650Y390575D01*
X1043650Y392000D02*
X1039150Y392000D01*
X1039150Y393425D02*
X1043650Y393425D01*
X1043650Y394850D02*
X1039150Y394850D01*
X1039150Y346150D02*
X1039150Y328650D01*
X1039150Y346150D02*
X1043650Y346150D01*
X1043650Y328650D01*
X1039150Y328650D01*
X1039150Y330075D02*
X1043650Y330075D01*
X1043650Y331500D02*
X1039150Y331500D01*
X1039150Y332925D02*
X1043650Y332925D01*
X1043650Y334350D02*
X1039150Y334350D01*
X1039150Y335775D02*
X1043650Y335775D01*
X1043650Y337200D02*
X1039150Y337200D01*
X1039150Y338625D02*
X1043650Y338625D01*
X1043650Y340050D02*
X1039150Y340050D01*
X1039150Y341475D02*
X1043650Y341475D01*
X1043650Y342900D02*
X1039150Y342900D01*
X1039150Y344325D02*
X1043650Y344325D01*
X1043650Y345750D02*
X1039150Y345750D01*
X1051850Y346150D02*
X1051850Y328650D01*
X1051850Y346150D02*
X1056350Y346150D01*
X1056350Y328650D01*
X1051850Y328650D01*
X1051850Y330075D02*
X1056350Y330075D01*
X1056350Y331500D02*
X1051850Y331500D01*
X1051850Y332925D02*
X1056350Y332925D01*
X1056350Y334350D02*
X1051850Y334350D01*
X1051850Y335775D02*
X1056350Y335775D01*
X1056350Y337200D02*
X1051850Y337200D01*
X1051850Y338625D02*
X1056350Y338625D01*
X1056350Y340050D02*
X1051850Y340050D01*
X1051850Y341475D02*
X1056350Y341475D01*
X1056350Y342900D02*
X1051850Y342900D01*
X1051850Y344325D02*
X1056350Y344325D01*
X1056350Y345750D02*
X1051850Y345750D01*
X1064550Y346150D02*
X1064550Y328650D01*
X1064550Y346150D02*
X1069050Y346150D01*
X1069050Y328650D01*
X1064550Y328650D01*
X1064550Y330075D02*
X1069050Y330075D01*
X1069050Y331500D02*
X1064550Y331500D01*
X1064550Y332925D02*
X1069050Y332925D01*
X1069050Y334350D02*
X1064550Y334350D01*
X1064550Y335775D02*
X1069050Y335775D01*
X1069050Y337200D02*
X1064550Y337200D01*
X1064550Y338625D02*
X1069050Y338625D01*
X1069050Y340050D02*
X1064550Y340050D01*
X1064550Y341475D02*
X1069050Y341475D01*
X1069050Y342900D02*
X1064550Y342900D01*
X1064550Y344325D02*
X1069050Y344325D01*
X1069050Y345750D02*
X1064550Y345750D01*
X1077250Y346150D02*
X1077250Y328650D01*
X1077250Y346150D02*
X1081750Y346150D01*
X1081750Y328650D01*
X1077250Y328650D01*
X1077250Y330075D02*
X1081750Y330075D01*
X1081750Y331500D02*
X1077250Y331500D01*
X1077250Y332925D02*
X1081750Y332925D01*
X1081750Y334350D02*
X1077250Y334350D01*
X1077250Y335775D02*
X1081750Y335775D01*
X1081750Y337200D02*
X1077250Y337200D01*
X1077250Y338625D02*
X1081750Y338625D01*
X1081750Y340050D02*
X1077250Y340050D01*
X1077250Y341475D02*
X1081750Y341475D01*
X1081750Y342900D02*
X1077250Y342900D01*
X1077250Y344325D02*
X1081750Y344325D01*
X1081750Y345750D02*
X1077250Y345750D01*
D13*
X1043550Y430530D03*
X1026550Y430530D03*
X1043550Y410210D03*
X1026550Y410210D03*
D12*
X1098550Y340750D03*
X1098550Y357750D03*
D30*
X855980Y174430D03*
X855980Y229430D03*
X843280Y174430D03*
X868680Y174430D03*
X881380Y174430D03*
X843280Y229430D03*
X868680Y229430D03*
X881380Y229430D03*
D31*
X853680Y140970D03*
X883680Y140970D03*
D32*
X909320Y186930D03*
X909320Y216930D03*
D13*
X841130Y252730D03*
X858130Y252730D03*
X789060Y195580D03*
X806060Y195580D03*
D12*
X791210Y212480D03*
X791210Y229480D03*
D33*
X317500Y287450D03*
X308000Y309450D03*
X327000Y309450D03*
D13*
X349250Y289950D03*
X349250Y306950D03*
D12*
X826770Y212970D03*
X826770Y195970D03*
D13*
X254000Y162950D03*
X254000Y179950D03*
X254000Y194700D03*
X254000Y211700D03*
D34*
X493010Y132590D03*
X469900Y132590D03*
X446790Y132590D03*
D35*
X469900Y70610D03*
D36*
X466350Y196850D03*
X498850Y196850D03*
X466350Y165100D03*
X498850Y165100D03*
D13*
X723900Y78350D03*
X723900Y61350D03*
D37*
X792450Y82550D02*
X798950Y82550D01*
X798950Y57150D02*
X792450Y57150D01*
X877450Y57150D02*
X883950Y57150D01*
X883950Y82550D02*
X877450Y82550D01*
D13*
X908050Y78350D03*
X908050Y61350D03*
D38*
X762000Y86900D03*
X762000Y52800D03*
D13*
X627380Y220100D03*
X627380Y237100D03*
X607060Y220100D03*
X607060Y237100D03*
X586740Y220100D03*
X586740Y237100D03*
X566420Y220100D03*
X566420Y237100D03*
D30*
X946150Y330640D03*
X946150Y385640D03*
X933450Y330640D03*
X958850Y330640D03*
X971550Y330640D03*
X933450Y385640D03*
X958850Y385640D03*
X971550Y385640D03*
D32*
X908050Y327900D03*
X908050Y357900D03*
D39*
X871220Y386110D03*
X871220Y358110D03*
M02*
