G04 EAGLE Gerber RS-274X export*
G75*
%MOMM*%
%FSLAX34Y34*%
%LPD*%
%INSoldermask Top*%
%IPPOS*%
%AMOC8*
5,1,8,0,0,1.08239X$1,22.5*%
G01*
%ADD10C,2.603200*%
%ADD11C,0.803200*%
%ADD12R,1.703200X1.503200*%
%ADD13R,1.203200X1.303200*%
%ADD14R,1.303200X1.203200*%
%ADD15C,0.349006*%
%ADD16R,1.102959X0.401359*%
%ADD17R,1.104081X0.401097*%
%ADD18R,1.103809X0.400294*%
%ADD19R,1.103509X0.399594*%
%ADD20R,1.101600X0.399509*%
%ADD21R,1.099341X0.399650*%
%ADD22R,1.099659X0.399931*%
%ADD23R,1.098350X0.400219*%
%ADD24R,1.099469X0.400247*%
%ADD25R,1.097700X0.401841*%
%ADD26R,1.703200X0.753200*%
%ADD27R,0.753200X1.703200*%
%ADD28R,5.719200X5.719200*%
%ADD29C,5.719200*%
%ADD30R,6.043200X4.143200*%
%ADD31P,3.629037X8X202.500000*%
%ADD32C,3.352800*%
%ADD33R,0.703200X1.603200*%
%ADD34C,0.353406*%
%ADD35C,1.524000*%
%ADD36R,0.803200X1.703200*%
%ADD37R,2.203200X2.403200*%
%ADD38R,2.403200X2.203200*%
%ADD39C,1.727200*%
%ADD40P,1.869504X8X292.500000*%
%ADD41C,1.711200*%
%ADD42R,1.711200X1.711200*%
%ADD43R,1.203200X1.603200*%
%ADD44C,1.903200*%
%ADD45C,1.727200*%
%ADD46P,1.649562X8X22.500000*%
%ADD47R,1.422200X2.438200*%
%ADD48R,3.803200X2.403200*%
%ADD49R,2.353200X2.003200*%
%ADD50C,2.489200*%
%ADD51C,1.803200*%
%ADD52R,1.933200X1.313200*%
%ADD53R,1.403200X2.203200*%


D10*
X97400Y838900D02*
X97400Y862900D01*
X152400Y862900D02*
X152400Y838900D01*
X207400Y838900D02*
X207400Y862900D01*
D11*
X579600Y355600D02*
X592600Y355600D01*
X592600Y342900D02*
X579600Y342900D01*
X579600Y330200D02*
X592600Y330200D01*
X592600Y317500D02*
X579600Y317500D01*
X579600Y304800D02*
X592600Y304800D01*
X592600Y292100D02*
X579600Y292100D01*
X579600Y279400D02*
X592600Y279400D01*
X626600Y355600D02*
X639600Y355600D01*
X639600Y342900D02*
X626600Y342900D01*
X626600Y330200D02*
X639600Y330200D01*
X639600Y317500D02*
X626600Y317500D01*
X626600Y304800D02*
X639600Y304800D01*
X639600Y292100D02*
X626600Y292100D01*
X626600Y279400D02*
X639600Y279400D01*
D12*
X113030Y776630D03*
X113030Y795630D03*
D13*
X554600Y342900D03*
X537600Y342900D03*
D14*
X554600Y363220D03*
X537600Y363220D03*
D15*
X797839Y355259D02*
X812481Y355259D01*
X797839Y355259D02*
X797839Y359701D01*
X812481Y359701D01*
X812481Y355259D01*
X812481Y358574D02*
X797839Y358574D01*
X797839Y345759D02*
X812481Y345759D01*
X797839Y345759D02*
X797839Y350201D01*
X812481Y350201D01*
X812481Y345759D01*
X812481Y349074D02*
X797839Y349074D01*
X797839Y336259D02*
X812481Y336259D01*
X797839Y336259D02*
X797839Y340701D01*
X812481Y340701D01*
X812481Y336259D01*
X812481Y339574D02*
X797839Y339574D01*
X820739Y340701D02*
X835381Y340701D01*
X835381Y336259D01*
X820739Y336259D01*
X820739Y340701D01*
X820739Y339574D02*
X835381Y339574D01*
X835381Y350201D02*
X820739Y350201D01*
X835381Y350201D02*
X835381Y345759D01*
X820739Y345759D01*
X820739Y350201D01*
X820739Y349074D02*
X835381Y349074D01*
X835381Y359701D02*
X820739Y359701D01*
X835381Y359701D02*
X835381Y355259D01*
X820739Y355259D01*
X820739Y359701D01*
X820739Y358574D02*
X835381Y358574D01*
D13*
X770010Y358140D03*
X787010Y358140D03*
D14*
X753110Y334400D03*
X753110Y351400D03*
D13*
X732790Y334400D03*
X732790Y351400D03*
D16*
X647505Y214477D03*
D17*
X647500Y209475D03*
D18*
X647501Y204471D03*
D19*
X647502Y199468D03*
D20*
X647512Y194468D03*
D21*
X688523Y194468D03*
D22*
X688522Y199470D03*
D23*
X688528Y204471D03*
D24*
X688523Y209471D03*
D25*
X688531Y214479D03*
D26*
X985700Y148650D03*
X985700Y140650D03*
X985700Y132650D03*
X985700Y124650D03*
X985700Y116650D03*
X985700Y108650D03*
X985700Y100650D03*
X985700Y92650D03*
D27*
X1000700Y77650D03*
X1008700Y77650D03*
X1016700Y77650D03*
X1024700Y77650D03*
X1032700Y77650D03*
X1040700Y77650D03*
X1048700Y77650D03*
X1056700Y77650D03*
D26*
X1071700Y92650D03*
X1071700Y100650D03*
X1071700Y108650D03*
X1071700Y116650D03*
X1071700Y124650D03*
X1071700Y132650D03*
X1071700Y140650D03*
X1071700Y148650D03*
D27*
X1056700Y163650D03*
X1048700Y163650D03*
X1040700Y163650D03*
X1032700Y163650D03*
X1024700Y163650D03*
X1016700Y163650D03*
X1008700Y163650D03*
X1000700Y163650D03*
D13*
X1094740Y112150D03*
X1094740Y129150D03*
D28*
X50800Y649800D03*
D29*
X50800Y721800D03*
D13*
X507120Y342900D03*
X524120Y342900D03*
D10*
X402200Y838900D02*
X402200Y862900D01*
X457200Y862900D02*
X457200Y838900D01*
X512200Y838900D02*
X512200Y862900D01*
D12*
X402590Y775360D03*
X402590Y794360D03*
D13*
X554600Y292100D03*
X537600Y292100D03*
D14*
X554600Y271780D03*
X537600Y271780D03*
D13*
X507120Y292100D03*
X524120Y292100D03*
D10*
X707000Y838900D02*
X707000Y862900D01*
X762000Y862900D02*
X762000Y838900D01*
X817000Y838900D02*
X817000Y862900D01*
D12*
X707390Y775360D03*
X707390Y794360D03*
D13*
X664600Y292100D03*
X681600Y292100D03*
D14*
X664600Y271780D03*
X681600Y271780D03*
D13*
X712080Y292100D03*
X695080Y292100D03*
D10*
X1011800Y838900D02*
X1011800Y862900D01*
X1066800Y862900D02*
X1066800Y838900D01*
X1121800Y838900D02*
X1121800Y862900D01*
D12*
X1012190Y775360D03*
X1012190Y794360D03*
D13*
X664600Y342900D03*
X681600Y342900D03*
D14*
X664600Y363220D03*
X681600Y363220D03*
D13*
X712080Y342900D03*
X695080Y342900D03*
D30*
X254000Y576550D03*
X254000Y668050D03*
X355600Y576550D03*
X355600Y668050D03*
X457200Y576550D03*
X457200Y668050D03*
X558800Y576550D03*
X558800Y668050D03*
X660400Y576550D03*
X660400Y668050D03*
X762000Y576550D03*
X762000Y668050D03*
X863600Y576550D03*
X863600Y668050D03*
X965200Y576550D03*
X965200Y668050D03*
D14*
X745490Y147710D03*
X745490Y164710D03*
X720090Y175650D03*
X720090Y192650D03*
X765810Y147710D03*
X765810Y164710D03*
D13*
X806060Y175260D03*
X789060Y175260D03*
D14*
X676520Y229870D03*
X659520Y229870D03*
D31*
X63500Y133350D03*
D32*
X139700Y133350D03*
D31*
X63500Y298450D03*
D32*
X139700Y298450D03*
D13*
X777240Y324240D03*
X777240Y341240D03*
X863210Y307340D03*
X846210Y307340D03*
X863210Y287020D03*
X846210Y287020D03*
D33*
X736600Y186900D03*
X749300Y186900D03*
X762000Y186900D03*
X774700Y186900D03*
X774700Y244900D03*
X762000Y244900D03*
X749300Y244900D03*
X736600Y244900D03*
D34*
X1077251Y377751D02*
X1077251Y395249D01*
X1081749Y395249D01*
X1081749Y377751D01*
X1077251Y377751D01*
X1077251Y381108D02*
X1081749Y381108D01*
X1081749Y384465D02*
X1077251Y384465D01*
X1077251Y387822D02*
X1081749Y387822D01*
X1081749Y391179D02*
X1077251Y391179D01*
X1077251Y394536D02*
X1081749Y394536D01*
X1064551Y395249D02*
X1064551Y377751D01*
X1064551Y395249D02*
X1069049Y395249D01*
X1069049Y377751D01*
X1064551Y377751D01*
X1064551Y381108D02*
X1069049Y381108D01*
X1069049Y384465D02*
X1064551Y384465D01*
X1064551Y387822D02*
X1069049Y387822D01*
X1069049Y391179D02*
X1064551Y391179D01*
X1064551Y394536D02*
X1069049Y394536D01*
X1051851Y395249D02*
X1051851Y377751D01*
X1051851Y395249D02*
X1056349Y395249D01*
X1056349Y377751D01*
X1051851Y377751D01*
X1051851Y381108D02*
X1056349Y381108D01*
X1056349Y384465D02*
X1051851Y384465D01*
X1051851Y387822D02*
X1056349Y387822D01*
X1056349Y391179D02*
X1051851Y391179D01*
X1051851Y394536D02*
X1056349Y394536D01*
X1039151Y395249D02*
X1039151Y377751D01*
X1039151Y395249D02*
X1043649Y395249D01*
X1043649Y377751D01*
X1039151Y377751D01*
X1039151Y381108D02*
X1043649Y381108D01*
X1043649Y384465D02*
X1039151Y384465D01*
X1039151Y387822D02*
X1043649Y387822D01*
X1043649Y391179D02*
X1039151Y391179D01*
X1039151Y394536D02*
X1043649Y394536D01*
X1039151Y346149D02*
X1039151Y328651D01*
X1039151Y346149D02*
X1043649Y346149D01*
X1043649Y328651D01*
X1039151Y328651D01*
X1039151Y332008D02*
X1043649Y332008D01*
X1043649Y335365D02*
X1039151Y335365D01*
X1039151Y338722D02*
X1043649Y338722D01*
X1043649Y342079D02*
X1039151Y342079D01*
X1039151Y345436D02*
X1043649Y345436D01*
X1051851Y346149D02*
X1051851Y328651D01*
X1051851Y346149D02*
X1056349Y346149D01*
X1056349Y328651D01*
X1051851Y328651D01*
X1051851Y332008D02*
X1056349Y332008D01*
X1056349Y335365D02*
X1051851Y335365D01*
X1051851Y338722D02*
X1056349Y338722D01*
X1056349Y342079D02*
X1051851Y342079D01*
X1051851Y345436D02*
X1056349Y345436D01*
X1064551Y346149D02*
X1064551Y328651D01*
X1064551Y346149D02*
X1069049Y346149D01*
X1069049Y328651D01*
X1064551Y328651D01*
X1064551Y332008D02*
X1069049Y332008D01*
X1069049Y335365D02*
X1064551Y335365D01*
X1064551Y338722D02*
X1069049Y338722D01*
X1069049Y342079D02*
X1064551Y342079D01*
X1064551Y345436D02*
X1069049Y345436D01*
X1077251Y346149D02*
X1077251Y328651D01*
X1077251Y346149D02*
X1081749Y346149D01*
X1081749Y328651D01*
X1077251Y328651D01*
X1077251Y332008D02*
X1081749Y332008D01*
X1081749Y335365D02*
X1077251Y335365D01*
X1077251Y338722D02*
X1081749Y338722D01*
X1081749Y342079D02*
X1077251Y342079D01*
X1077251Y345436D02*
X1081749Y345436D01*
D35*
X1060450Y416560D03*
X1085850Y416560D03*
D14*
X1043550Y430530D03*
X1026550Y430530D03*
X1043550Y410210D03*
X1026550Y410210D03*
D13*
X1098550Y340750D03*
X1098550Y357750D03*
D36*
X855980Y174430D03*
X855980Y229430D03*
X843280Y174430D03*
X868680Y174430D03*
X881380Y174430D03*
X843280Y229430D03*
X868680Y229430D03*
X881380Y229430D03*
D37*
X853680Y140970D03*
X883680Y140970D03*
D38*
X909320Y186930D03*
X909320Y216930D03*
D14*
X841130Y252730D03*
X858130Y252730D03*
X789060Y195580D03*
X806060Y195580D03*
D13*
X791210Y212480D03*
X791210Y229480D03*
D39*
X1129030Y118110D03*
D40*
X1129030Y92710D03*
X1129030Y67310D03*
X1154430Y118110D03*
X1154430Y92710D03*
X1154430Y67310D03*
D41*
X679450Y131010D03*
D42*
X679450Y156010D03*
D41*
X266700Y285950D03*
D42*
X266700Y310950D03*
D43*
X317500Y287450D03*
X308000Y309450D03*
X327000Y309450D03*
D14*
X349250Y289950D03*
X349250Y306950D03*
D42*
X1003900Y236050D03*
D41*
X1028900Y236050D03*
X1053900Y236050D03*
X1078900Y236050D03*
D13*
X826770Y212970D03*
X826770Y195970D03*
D44*
X139700Y393700D03*
X139700Y469900D03*
X101600Y393700D03*
X101600Y469900D03*
X63500Y469900D03*
X63500Y393700D03*
X25400Y469900D03*
X25400Y393700D03*
D45*
X317500Y134620D02*
X317500Y119380D01*
X292100Y119380D02*
X292100Y134620D01*
X266700Y134620D02*
X266700Y119380D01*
D46*
X279400Y190500D03*
X292100Y209550D03*
X304800Y190500D03*
D14*
X254000Y162950D03*
X254000Y179950D03*
X254000Y194700D03*
X254000Y211700D03*
D47*
X493010Y132590D03*
X469900Y132590D03*
X446790Y132590D03*
D48*
X469900Y70610D03*
D49*
X466350Y196850D03*
X498850Y196850D03*
X466350Y165100D03*
X498850Y165100D03*
D41*
X69850Y520900D03*
D42*
X69850Y545900D03*
D50*
X292100Y71120D03*
D14*
X723900Y78350D03*
X723900Y61350D03*
D41*
X1154430Y171650D03*
D42*
X1154430Y196650D03*
D51*
X798950Y82550D02*
X792450Y82550D01*
X792450Y57150D02*
X798950Y57150D01*
X877450Y57150D02*
X883950Y57150D01*
X883950Y82550D02*
X877450Y82550D01*
D14*
X908050Y78350D03*
X908050Y61350D03*
D41*
X679450Y51000D03*
D42*
X679450Y76000D03*
D52*
X762000Y86900D03*
X762000Y52800D03*
D42*
X1154600Y413350D03*
D41*
X1154600Y438350D03*
X1154600Y463350D03*
X1154600Y488350D03*
D14*
X627380Y220100D03*
X627380Y237100D03*
X607060Y220100D03*
X607060Y237100D03*
X586740Y220100D03*
X586740Y237100D03*
X566420Y220100D03*
X566420Y237100D03*
D36*
X946150Y330640D03*
X946150Y385640D03*
X933450Y330640D03*
X958850Y330640D03*
X971550Y330640D03*
X933450Y385640D03*
X958850Y385640D03*
X971550Y385640D03*
D38*
X908050Y327900D03*
X908050Y357900D03*
D53*
X871220Y386110D03*
X871220Y358110D03*
D42*
X1154600Y254800D03*
D41*
X1154600Y279800D03*
X1154600Y304800D03*
X1154600Y329800D03*
X1154600Y354800D03*
D45*
X934720Y35560D02*
X934720Y20320D01*
X960120Y20320D02*
X960120Y35560D01*
X985520Y35560D02*
X985520Y20320D01*
X1010920Y20320D02*
X1010920Y35560D01*
X1036320Y35560D02*
X1036320Y20320D01*
X1061720Y20320D02*
X1061720Y35560D01*
X1087120Y35560D02*
X1087120Y20320D01*
X1112520Y20320D02*
X1112520Y35560D01*
X1137920Y35560D02*
X1137920Y20320D01*
M02*
