M48
;GenerationSoftware,Autodesk,EAGLE,9.6.2*%
;CreationDate,2023-11-05T21:54:08Z*%
FMAT,2
ICI,OFF
METRIC,TZ,000.000
T8C0.350
T7C0.813
T6C1.000
T5C1.016
T4C1.100
T3C1.524
T2C1.600
T1C4.500
%
G90
M71
T1
X5080Y64980
X5080Y72180
T2
X51220Y85090
X9740Y85090
X15240Y85090
X20740Y85090
X40220Y85090
X45720Y85090
X70700Y85090
X76200Y85090
X81700Y85090
X101180Y85090
X106680Y85090
X112180Y85090
T3
X29210Y7112
T4
X6350Y46990
X10160Y46990
X10160Y39370
X13970Y39370
X13970Y46990
X2540Y39370
X2540Y46990
X6350Y39370
T5
X113792Y2794
X6350Y29845
X6350Y13335
X13970Y13335
X103632Y2794
X13970Y29845
X106172Y2794
X108712Y2794
X112903Y11811
X112903Y9271
X112903Y6731
X115443Y11811
X115443Y9271
X115443Y6731
X31750Y12700
X29210Y12700
X26670Y12700
X111252Y2794
X93472Y2794
X96012Y2794
X98552Y2794
X101092Y2794
T6
X26670Y31095
X6985Y52090
X6985Y54590
X67945Y13101
X115443Y17165
X115443Y19665
X100390Y23605
X67945Y7600
X115460Y41335
X115460Y43835
X115460Y46335
X115460Y48835
X115460Y25480
X115460Y27980
X115460Y30480
X67945Y5100
X115460Y35480
X26670Y28595
X67945Y15601
X107890Y23605
X105390Y23605
X102890Y23605
X115460Y32980
T7
X106045Y41656
X108585Y41656
X30480Y19050
X27940Y19050
X29210Y20955
T8
X99060Y63500
X99060Y62230
X97790Y62230
X95250Y62230
X93980Y62230
X93980Y60960
X95250Y60960
X96520Y60960
X97790Y60960
X99060Y60960
X83820Y63500
X85090Y63500
X86360Y63500
X87630Y63500
X88900Y63500
X88900Y62230
X87630Y62230
X85090Y62230
X83820Y62230
X83820Y60960
X85090Y60960
X86360Y60960
X87630Y60960
X88900Y60960
X86360Y62230
X96520Y62230
X73660Y63500
X74930Y63500
X76200Y63500
X77470Y63500
X78740Y63500
X78740Y62230
X77470Y62230
X74930Y62230
X73660Y62230
X73660Y60960
X74930Y60960
X76200Y60960
X77470Y60960
X78740Y60960
X76200Y62230
X63500Y63500
X64770Y63500
X66040Y63500
X67310Y63500
X68580Y63500
X68580Y62230
X67310Y62230
X64770Y62230
X63500Y62230
X63500Y60960
X64770Y60960
X66040Y60960
X67310Y60960
X68580Y60960
X66040Y62230
X25400Y62230
X59690Y44450
X62230Y44450
X60960Y44450
X58420Y43180
X58420Y41910
X63500Y41910
X63500Y43180
X63500Y40640
X58420Y40640
X59690Y39370
X62230Y39370
X75311Y36449
X78994Y34671
X62230Y20701
X89281Y28194
X77470Y38100
X71755Y20320
X76835Y20320
X61829Y33020
X30797Y32258
X100114Y13640
X101346Y42101
X83820Y5715
X60833Y32893
X51867Y18136
X88773Y36703
X105575Y11735
X117259Y6655
X88773Y35433
X53340Y33209
X82169Y29337
X83566Y30734
X89916Y25708
X95250Y22987
X103124Y19685
X103251Y17780
X90932Y25019
X101600Y25019
X104140Y19685
X104160Y17780
X73073Y32258
X71501Y31750
X40259Y52832
X56896Y28321
X52070Y30480
X48260Y63500
X69850Y71882
X69850Y30480
X77470Y50800
X72390Y38100
X69469Y35749
X57023Y31750
X60134Y28511
X63881Y26924
X72390Y26924
X75565Y26924
X84074Y26924
X95885Y14605
X96520Y24064
X95504Y26924
X44323Y10541
X44323Y11430
X45212Y11430
X46101Y11430
X46990Y11430
X47879Y11430
X48768Y11430
X49657Y11430
X45212Y10541
X46101Y10541
X46990Y10541
X47879Y10541
X48768Y10541
X49657Y10541
X49657Y9652
X49657Y8763
X48768Y8763
X48768Y9652
X47879Y9652
X47879Y8763
X46990Y8763
X46990Y9652
X46101Y9652
X46101Y8763
X45212Y8763
X45212Y9652
X44323Y9652
X44323Y8763
X43434Y6985
X43434Y7874
X44323Y7874
X44323Y6985
X44323Y5207
X44323Y6096
X43434Y6096
X43434Y5207
X49657Y6985
X49657Y7874
X50546Y7874
X50546Y6985
X50546Y5207
X50546Y6096
X49657Y6096
X49657Y5207
X43434Y8763
X43434Y9652
X43434Y10541
X43434Y11430
X43434Y12319
X50546Y11430
X50546Y12446
X50546Y10541
X50546Y9652
X50546Y8763
X45212Y5207
X46101Y5207
X46990Y5207
X47879Y5207
X48768Y5207
X38100Y47625
X48514Y35941
X50800Y53848
X50800Y30607
X71120Y53340
X71120Y30607
X73660Y36830
X81661Y46990
X78090Y20574
X88880Y21693
X44679Y15240
X102489Y14859
X111252Y6731
X93980Y9525
X99060Y7620
X60960Y40640
X90805Y8890
X101248Y14859
X97189Y13428
X97155Y9906
X97155Y8890
X101731Y17780
X100823Y17795
X74549Y5207
X78994Y33762
X85283Y32385
X105771Y14862
X104775Y14859
X106680Y15875
X60960Y41910
X60960Y43180
X62230Y41910
X62230Y43180
X59690Y43180
X59690Y41910
X59690Y40640
X62230Y40640
X60960Y39370
X22860Y63500
X24130Y63500
X25400Y63500
X26670Y63500
X27940Y63500
X27940Y62230
X26670Y62230
X24130Y62230
X22860Y62230
X22860Y60960
X24130Y60960
X25400Y60960
X26670Y60960
X27940Y60960
X33020Y60960
X34290Y60960
X35560Y60960
X36830Y60960
X38100Y60960
X38100Y62230
X64897Y28448
X36830Y62230
X34290Y62230
X35560Y62230
X33020Y62230
X33020Y63500
X34290Y63500
X35560Y63500
X36830Y63500
X38100Y63500
X43180Y63500
X44450Y63500
X45720Y63500
X46990Y63500
X48260Y62230
X46990Y62230
X45720Y62230
X44450Y62230
X43180Y62230
X43180Y60960
X44450Y60960
X45720Y60960
X46990Y60960
X48260Y60960
X53340Y63500
X54610Y63500
X55880Y63500
X57150Y63500
X58420Y63500
X58420Y62230
X57150Y62230
X55880Y62230
X54610Y62230
X53340Y62230
X53340Y60960
X54610Y60960
X55880Y60960
X57150Y60960
X58420Y60960
X93980Y63500
X95250Y63500
X96520Y63500
X97790Y63500
X111760Y16510
M30